<svg width="51" height="40" viewBox="0 0 51 40" fill="none" xmlns="http://www.w3.org/2000/svg">
<path d="M42.7783 3.27394C39.5093 1.74448 36.014 0.632927 32.3598 0C31.911 0.811389 31.3867 1.90273 31.0252 2.77088C27.1406 2.18669 23.2917 2.18669 19.4786 2.77088C19.1172 1.90273 18.581 0.811389 18.1282 0C14.4699 0.632927 10.9706 1.74856 7.70166 3.28204C1.10814 13.2457 -0.679248 22.9619 0.21445 32.5401C4.58761 35.8059 8.82574 37.7897 12.9923 39.0879C14.0211 37.672 14.9386 36.1669 15.729 34.5807C14.2236 34.0087 12.7818 33.3028 11.4195 32.4833C11.7809 32.2156 12.1344 31.9356 12.476 31.6476C20.7854 35.5341 29.8137 35.5341 38.0238 31.6476C38.3694 31.9356 38.7229 32.2156 39.0804 32.4833C37.714 33.3068 36.2682 34.0127 34.7628 34.5848C35.5533 36.1669 36.4668 37.6761 37.4995 39.0919C41.6701 37.7937 45.9122 35.8099 50.2854 32.5401C51.334 21.4365 48.494 11.8096 42.7783 3.27394ZM16.8611 26.6496C14.3667 26.6496 12.3211 24.3209 12.3211 21.4852C12.3211 18.6494 14.323 16.3167 16.8611 16.3167C19.3992 16.3167 21.4447 18.6453 21.4011 21.4852C21.405 24.3209 19.3992 26.6496 16.8611 26.6496ZM33.6388 26.6496C31.1444 26.6496 29.0988 24.3209 29.0988 21.4852C29.0988 18.6494 31.1006 16.3167 33.6388 16.3167C36.1768 16.3167 38.2224 18.6453 38.1788 21.4852C38.1788 24.3209 36.1768 26.6496 33.6388 26.6496Z" fill="#6987FF"/>
</svg>
