<svg width="49" height="48" viewBox="0 0 49 48" fill="none" xmlns="http://www.w3.org/2000/svg">
<path d="M41.5086 6.05141C37.1316 2.01714 31.6873 0 25.1854 0C18.3507 0 12.5245 2.29131 7.71665 6.88372C2.90881 11.4761 0.5 17.1848 0.5 24.0196C0.5 30.5704 2.79131 36.2007 7.36414 40.9204C11.9565 45.6401 18.1255 48 25.8905 48C30.571 48 35.1634 47.0404 39.6677 45.1114C41.1365 44.4847 41.8513 42.8005 41.254 41.3219C40.6371 39.7944 38.8941 39.0893 37.3764 39.7356C33.4596 41.4198 29.6212 42.2619 25.8807 42.2619C19.9272 42.2619 15.3152 40.4504 12.0447 36.8176C8.78397 33.1946 7.14871 28.9351 7.14871 24.049C7.14871 18.7417 8.90147 14.3158 12.3972 10.7613C15.8831 7.21665 20.1818 5.43452 25.2736 5.43452C29.9639 5.43452 33.9296 6.89351 37.161 9.8115C40.3923 12.7295 42.008 16.4015 42.008 20.8274C42.008 23.8531 41.2638 26.3794 39.7852 28.3868C38.3066 30.4039 36.7693 31.4027 35.1732 31.4027C34.3115 31.4027 33.8807 30.9425 33.8807 30.0122C33.8807 29.2583 33.9394 28.377 34.0471 27.3586L35.8684 12.4651H29.6016L29.2001 13.9241C27.604 12.6218 25.8513 11.9657 23.9517 11.9657C20.9357 11.9657 18.3507 13.1701 16.2062 15.5692C14.052 17.9682 12.9847 21.0624 12.9847 24.8421C12.9847 28.5337 13.9345 31.5202 15.8439 33.7821C17.7534 36.0539 20.0447 37.1799 22.7277 37.1799C25.1267 37.1799 27.1732 36.1714 28.877 34.164C30.1597 36.093 32.0496 37.0526 34.5465 37.0526C38.2185 37.0526 41.3911 35.4565 44.0643 32.2546C46.7375 29.0624 48.0789 25.2044 48.0789 20.6903C48.0789 14.9718 45.8953 10.0857 41.5086 6.05141ZM27.0753 28.5826C25.9688 30.071 24.6469 30.825 23.1095 30.825C22.0618 30.825 21.2197 30.2766 20.5832 29.1799C19.937 28.0832 19.6138 26.7222 19.6138 25.0869C19.6138 23.0698 20.0643 21.4443 20.9651 20.2105C21.866 18.9767 22.9823 18.3501 24.314 18.3501C25.4694 18.3501 26.4976 18.8103 27.3984 19.7405C28.2993 20.6707 28.7497 21.9045 28.7497 23.4517C28.7399 25.3807 28.1818 27.0845 27.0753 28.5826Z" fill="#6987FF"/>
</svg>
