<svg width="24" height="18" viewBox="0 0 24 18" fill="none" xmlns="http://www.w3.org/2000/svg">
<path d="M6 17.4545C4.34545 17.4545 2.93182 16.8818 1.75909 15.7364C0.586364 14.5909 0 13.1909 0 11.5364C0 10.1182 0.427273 8.85455 1.28182 7.74545C2.13636 6.63636 3.25455 5.92727 4.63636 5.61818C5.09091 3.94545 6 2.59091 7.36364 1.55455C8.72727 0.518182 10.2727 0 12 0C14.1273 0 15.9318 0.740909 17.4136 2.22273C18.8955 3.70455 19.6364 5.50909 19.6364 7.63636C20.8909 7.78182 21.9318 8.32273 22.7591 9.25909C23.5864 10.1955 24 11.2909 24 12.5455C24 13.9091 23.5227 15.0682 22.5682 16.0227C21.6136 16.9773 20.4545 17.4545 19.0909 17.4545H13.0909C12.4909 17.4545 11.9773 17.2409 11.55 16.8136C11.1227 16.3864 10.9091 15.8727 10.9091 15.2727V9.65455L9.16364 11.3455L7.63636 9.81818L12 5.45455L16.3636 9.81818L14.8364 11.3455L13.0909 9.65455V15.2727H19.0909C19.8545 15.2727 20.5 15.0091 21.0273 14.4818C21.5545 13.9545 21.8182 13.3091 21.8182 12.5455C21.8182 11.7818 21.5545 11.1364 21.0273 10.6091C20.5 10.0818 19.8545 9.81818 19.0909 9.81818H17.4545V7.63636C17.4545 6.12727 16.9227 4.84091 15.8591 3.77727C14.7955 2.71364 13.5091 2.18182 12 2.18182C10.4909 2.18182 9.20455 2.71364 8.14091 3.77727C7.07727 4.84091 6.54545 6.12727 6.54545 7.63636H6C4.94545 7.63636 4.04545 8.00909 3.3 8.75455C2.55455 9.5 2.18182 10.4 2.18182 11.4545C2.18182 12.5091 2.55455 13.4091 3.3 14.1545C4.04545 14.9 4.94545 15.2727 6 15.2727H8.72727V17.4545H6Z" fill="white"/>
</svg>
