<svg width="63" height="62" viewBox="0 0 63 62" fill="none" xmlns="http://www.w3.org/2000/svg">
<path d="M31.5 62C14.4016 62 0.5 48.1064 0.5 31.0121C0.5 13.8936 14.4016 0 31.5 0C48.5984 0 62.5 13.8936 62.5 30.9879C62.5 48.0821 48.5984 62 31.5 62ZM57.632 35.2311C56.7359 34.9402 49.4461 32.7822 41.1391 34.0915C44.6023 43.5964 46.007 51.3555 46.2734 52.9558C52.2313 48.955 56.4695 42.6023 57.632 35.2311ZM41.8414 55.4048C41.4539 53.077 39.9039 44.9785 36.1984 35.3281C36.15 35.3524 36.0773 35.3766 36.0289 35.3766C21.0859 40.5898 15.7336 50.9433 15.2492 51.9132C19.7297 55.4048 25.3727 57.49 31.5 57.49C35.157 57.5143 38.6687 56.7626 41.8414 55.4048ZM11.8344 48.7368C12.4398 47.7184 19.7055 35.6918 33.3648 31.2546C33.7039 31.1334 34.0672 31.0364 34.4062 30.9394C33.7523 29.4361 33.0258 27.9327 32.2508 26.4537C19.0273 30.4059 6.19141 30.2362 5.02891 30.212C5.02891 30.4787 5.00469 30.7454 5.00469 31.0121C5.02891 37.8256 7.59609 44.0329 11.8344 48.7368ZM5.58594 25.605C6.77266 25.6293 17.6711 25.6777 30.0711 22.3801C25.6875 14.5725 20.9406 8.02581 20.2625 7.08017C12.8273 10.5718 7.30547 17.4095 5.58594 25.605ZM25.3 5.28588C26.0266 6.25577 30.8461 12.8025 35.1812 20.7798C44.6023 17.2397 48.5742 11.9054 49.0586 11.2264C44.3844 7.08017 38.2328 4.55847 31.5 4.55847C29.3687 4.55847 27.2859 4.82519 25.3 5.28588ZM51.9891 14.2816C51.432 15.0332 47 20.7313 37.2156 24.7321C37.8211 25.993 38.4266 27.2781 38.9836 28.5632C39.1773 29.0239 39.3711 29.4846 39.5648 29.921C48.3805 28.8056 57.1234 30.5999 57.9953 30.7697C57.9227 24.5381 55.6945 18.7916 51.9891 14.2816Z" fill="white"/>
</svg>
