<svg width="25" height="25" viewBox="0 0 25 25" fill="none" xmlns="http://www.w3.org/2000/svg">
<path d="M3.16667 24.3999C2.43333 24.3999 1.80556 24.1388 1.28333 23.6166C0.761111 23.0943 0.5 22.4666 0.5 21.7332V3.06657C0.5 2.33324 0.761111 1.70546 1.28333 1.18324C1.80556 0.661013 2.43333 0.399902 3.16667 0.399902H17.8333L24.5 7.06657V21.7332C24.5 22.4666 24.2389 23.0943 23.7167 23.6166C23.1944 24.1388 22.5667 24.3999 21.8333 24.3999H3.16667ZM3.16667 21.7332H21.8333V8.3999H16.5V3.06657H3.16667V21.7332ZM5.83333 19.0666H19.1667V16.3999H5.83333V19.0666ZM5.83333 8.3999H12.5V5.73324H5.83333V8.3999ZM5.83333 13.7332H19.1667V11.0666H5.83333V13.7332Z" fill="#4B4A4B"/>
</svg>
