<svg width="63" height="62" viewBox="0 0 63 62" fill="none" xmlns="http://www.w3.org/2000/svg">
<path fill-rule="evenodd" clip-rule="evenodd" d="M31.5 62C48.6208 62 62.5 48.1208 62.5 31C62.5 13.8792 48.6208 0 31.5 0C14.3792 0 0.5 13.8792 0.5 31C0.5 48.1208 14.3792 62 31.5 62ZM23.75 7.25C21.3566 7.25 19.0652 8.21191 17.379 9.91754C15.6934 11.6225 14.75 13.9307 14.75 16.3333C14.75 18.736 15.6934 21.0442 17.379 22.7491C17.7103 23.0842 18.0649 23.3906 18.4391 23.6667C18.0649 23.9427 17.7103 24.2491 17.379 24.5842C15.6934 26.2892 14.75 28.5974 14.75 31C14.75 33.4026 15.6934 35.7108 17.379 37.4158C17.5496 37.5883 17.7262 37.7532 17.9086 37.9102C18.0806 38.0583 18.2576 38.1994 18.4391 38.3333C18.0649 38.6094 17.7103 38.9158 17.379 39.2509C15.6934 40.9558 14.75 43.264 14.75 45.6667C14.75 48.0693 15.6934 50.3775 17.379 52.0825C19.0652 53.7881 21.3566 54.75 23.75 54.75C26.1434 54.75 28.4348 53.7881 30.121 52.0825C31.8066 50.3775 32.75 48.0693 32.75 45.6667V38.3333V38.1899C34.3152 39.4095 36.2468 40.0833 38.25 40.0833C40.6434 40.0833 42.9348 39.1214 44.621 37.4158C46.3066 35.7108 47.25 33.4026 47.25 31C47.25 28.5974 46.3066 26.2892 44.621 24.5842C44.2897 24.2491 43.9351 23.9427 43.5609 23.6667C43.9351 23.3906 44.2897 23.0842 44.621 22.7491C46.3066 21.0442 47.25 18.736 47.25 16.3333C47.25 13.9307 46.3066 11.6225 44.621 9.91754C42.9348 8.21191 40.6434 7.25 38.25 7.25H31H23.75ZM19.8679 20.2885C20.901 21.3333 22.2979 21.9167 23.75 21.9167H29.25V10.75H23.75C22.2979 10.75 20.901 11.3333 19.8679 12.3782C18.8342 13.4238 18.25 14.8461 18.25 16.3333C18.25 17.8206 18.8342 19.2429 19.8679 20.2885ZM23.75 25.4167H29.25V31V36.5833H23.75C22.2979 36.5833 20.901 36 19.8679 34.9551C18.8342 33.9095 18.25 32.4872 18.25 31C18.25 29.5128 18.8342 28.0905 19.8679 27.0449C20.901 26 22.2979 25.4167 23.75 25.4167ZM23.75 40.0833H29.25V45.6667C29.25 47.1539 28.6658 48.5762 27.6321 49.6218C26.599 50.6667 25.2021 51.25 23.75 51.25C22.2979 51.25 20.901 50.6667 19.8679 49.6218C18.8342 48.5762 18.25 47.1539 18.25 45.6667C18.25 44.1794 18.8342 42.7571 19.8679 41.7115C20.901 40.6667 22.2979 40.0833 23.75 40.0833ZM32.75 21.9167H38.25C39.7021 21.9167 41.099 21.3333 42.1321 20.2885C43.1658 19.2429 43.75 17.8206 43.75 16.3333C43.75 14.8461 43.1658 13.4238 42.1321 12.3782C41.099 11.3333 39.7021 10.75 38.25 10.75H32.75V21.9167ZM34.3679 34.9551C33.3342 33.9095 32.75 32.4872 32.75 31C32.75 29.5128 33.3342 28.0905 34.3679 27.0449C35.401 26 36.7979 25.4167 38.25 25.4167C39.7021 25.4167 41.099 26 42.1321 27.0449C43.1658 28.0905 43.75 29.5128 43.75 31C43.75 32.4872 43.1658 33.9095 42.1321 34.9551C41.099 36 39.7021 36.5833 38.25 36.5833C36.7979 36.5833 35.401 36 34.3679 34.9551Z" fill="white"/>
</svg>
