<svg width="53" height="53" viewBox="0 0 53 53" fill="none" xmlns="http://www.w3.org/2000/svg">
<path d="M26.4793 3.94922C13.6796 3.94404 3.3125 14.306 3.3125 27.0953C3.3125 37.2088 9.79775 45.8058 18.8295 48.963C20.0458 49.2683 19.8595 48.404 19.8595 47.814V43.8027C12.8359 44.6257 12.5513 39.9778 12.0803 39.2015C11.1279 37.5763 8.87646 37.1622 9.54932 36.3858C11.1486 35.5629 12.779 36.5929 14.6682 39.3826C16.0346 41.4063 18.7001 41.0647 20.051 40.7283C20.346 39.512 20.9774 38.4251 21.847 37.5814C14.5698 36.2771 11.5368 31.8363 11.5368 26.557C11.5368 23.995 12.3805 21.64 14.0367 19.7405C12.9809 16.6092 14.1351 13.9281 14.2903 13.5296C17.2975 13.2604 20.4236 15.6827 20.6669 15.8742C22.3749 15.4136 24.3262 15.1703 26.5104 15.1703C28.7049 15.1703 30.6613 15.4239 32.3849 15.8897C32.9697 15.4446 35.8682 13.364 38.6631 13.6176C38.8132 14.0161 39.9415 16.6351 38.9478 19.725C40.6247 21.6297 41.4787 24.0054 41.4787 26.5726C41.4787 31.8622 38.425 36.3082 31.1271 37.5918C31.7522 38.2065 32.2486 38.9396 32.5871 39.7483C32.9257 40.557 33.0998 41.425 33.0991 42.3017V48.1245C33.1405 48.5903 33.0991 49.051 33.8755 49.051C43.0418 45.961 49.6409 37.3019 49.6409 27.1005C49.6409 14.306 39.2687 3.94922 26.4793 3.94922V3.94922Z" fill="#6987FF"/>
</svg>
