<svg width="63" height="62" viewBox="0 0 63 62" fill="none" xmlns="http://www.w3.org/2000/svg">
<path fill-rule="evenodd" clip-rule="evenodd" d="M31.5 62C48.6208 62 62.5 48.1208 62.5 31C62.5 13.8792 48.6208 0 31.5 0C14.3792 0 0.5 13.8792 0.5 31C0.5 48.1208 14.3792 62 31.5 62ZM21.1733 35.0752C21.22 36.8574 21.9005 38.3721 23.215 39.6195C24.5295 40.8669 26.0778 41.4673 27.8599 41.4206C29.6421 41.3739 31.1569 40.6934 32.4042 39.3789L40.9461 30.3777L39.6602 29.1574L31.1183 38.1586C30.2235 39.1016 29.1217 39.5902 27.8129 39.6245C26.5041 39.6588 25.3783 39.2285 24.4353 38.3336C23.4923 37.4388 23.0036 36.337 22.9694 35.0282C22.9351 33.7194 23.3654 32.5935 24.2603 31.6505L32.8021 22.6493C33.3716 22.0492 34.0601 21.7386 34.8676 21.7175C35.6751 21.6963 36.379 21.9705 36.979 22.5399C37.5791 23.1094 37.8897 23.7979 37.9109 24.6054C37.932 25.413 37.6579 26.1168 37.0884 26.7169L29.3601 34.8608C29.1296 35.1037 28.8542 35.2294 28.534 35.2377C28.2138 35.2461 27.9322 35.1351 27.6893 34.9046C27.4464 34.6741 27.3208 34.3987 27.3124 34.0785C27.304 33.7583 27.4151 33.4767 27.6456 33.2338L35.3739 25.0898L34.088 23.8696L26.3597 32.0135C25.7902 32.6136 25.516 33.3174 25.5372 34.125C25.5583 34.9325 25.869 35.621 26.469 36.1905C27.0691 36.7599 27.7729 37.0341 28.5805 37.0129C29.388 36.9918 30.0765 36.6812 30.646 36.0811L38.3743 27.9371C39.2692 26.9941 39.6995 25.8683 39.6652 24.5595C39.6309 23.2507 39.1423 22.1489 38.1993 21.254C37.2563 20.3592 36.1304 19.9289 34.8217 19.9632C33.5129 19.9974 32.4111 20.4861 31.5162 21.429L22.9744 30.4303C21.727 31.7447 21.1266 33.2931 21.1733 35.0752Z" fill="white"/>
</svg>
