<svg width="25" height="20" viewBox="0 0 25 20" fill="none" xmlns="http://www.w3.org/2000/svg">
<path d="M2.9 19.9998C2.24 19.9998 1.675 19.7648 1.205 19.2948C0.735 18.8248 0.5 18.2598 0.5 17.5998V3.1998C0.5 2.5398 0.735 1.9748 1.205 1.5048C1.675 1.0348 2.24 0.799805 2.9 0.799805H22.1C22.76 0.799805 23.325 1.0348 23.795 1.5048C24.265 1.9748 24.5 2.5398 24.5 3.1998V17.5998C24.5 18.2598 24.265 18.8248 23.795 19.2948C23.325 19.7648 22.76 19.9998 22.1 19.9998H2.9ZM12.5 11.5998L2.9 5.5998V17.5998H22.1V5.5998L12.5 11.5998ZM12.5 9.19981L22.1 3.1998H2.9L12.5 9.19981ZM2.9 5.5998V3.1998V17.5998V5.5998Z" fill="#4B4A4B"/>
</svg>
