<svg width="25" height="25" viewBox="0 0 25 25" fill="none" xmlns="http://www.w3.org/2000/svg">
<path d="M12.5 12.2002C10.85 12.2002 9.4375 11.6127 8.2625 10.4377C7.0875 9.2627 6.5 7.8502 6.5 6.2002C6.5 4.5502 7.0875 3.1377 8.2625 1.9627C9.4375 0.787695 10.85 0.200195 12.5 0.200195C14.15 0.200195 15.5625 0.787695 16.7375 1.9627C17.9125 3.1377 18.5 4.5502 18.5 6.2002C18.5 7.8502 17.9125 9.2627 16.7375 10.4377C15.5625 11.6127 14.15 12.2002 12.5 12.2002ZM0.5 24.2002V20.0002C0.5 19.1502 0.71875 18.3689 1.15625 17.6564C1.59375 16.9439 2.175 16.4002 2.9 16.0252C4.45 15.2502 6.025 14.6689 7.625 14.2814C9.225 13.8939 10.85 13.7002 12.5 13.7002C14.15 13.7002 15.775 13.8939 17.375 14.2814C18.975 14.6689 20.55 15.2502 22.1 16.0252C22.825 16.4002 23.4062 16.9439 23.8438 17.6564C24.2813 18.3689 24.5 19.1502 24.5 20.0002V24.2002H0.5ZM3.5 21.2002H21.5V20.0002C21.5 19.7252 21.4313 19.4752 21.2938 19.2502C21.1563 19.0252 20.975 18.8502 20.75 18.7252C19.4 18.0502 18.0375 17.5439 16.6625 17.2064C15.2875 16.8689 13.9 16.7002 12.5 16.7002C11.1 16.7002 9.7125 16.8689 8.3375 17.2064C6.9625 17.5439 5.6 18.0502 4.25 18.7252C4.025 18.8502 3.84375 19.0252 3.70625 19.2502C3.56875 19.4752 3.5 19.7252 3.5 20.0002V21.2002ZM12.5 9.2002C13.325 9.2002 14.0313 8.90645 14.6188 8.31895C15.2063 7.73145 15.5 7.0252 15.5 6.2002C15.5 5.3752 15.2063 4.66895 14.6188 4.08145C14.0313 3.49395 13.325 3.2002 12.5 3.2002C11.675 3.2002 10.9688 3.49395 10.3813 4.08145C9.79375 4.66895 9.5 5.3752 9.5 6.2002C9.5 7.0252 9.79375 7.73145 10.3813 8.31895C10.9688 8.90645 11.675 9.2002 12.5 9.2002Z" fill="#4B4A4B"/>
</svg>
