<svg width="62" height="62" viewBox="0 0 62 62" fill="none" xmlns="http://www.w3.org/2000/svg">
<path d="M62 31C62 48.1208 48.1208 62 31 62C13.8792 62 0 48.1208 0 31C0 13.8792 13.8792 0 31 0C48.1208 0 62 13.8792 62 31Z" fill="white"/>
<path d="M15.5894 20.64C14.0427 20.64 12.8027 20.2267 11.8694 19.4C10.936 18.5733 10.4694 17.5333 10.4694 16.28C10.4694 15 10.936 13.9467 11.8694 13.12C12.8027 12.2667 14.0427 11.84 15.5894 11.84C17.1094 11.84 18.336 12.2667 19.2694 13.12C20.2027 13.9467 20.6694 15 20.6694 16.28C20.6694 17.5333 20.2027 18.5733 19.2694 19.4C18.336 20.2267 17.1094 20.64 15.5894 20.64ZM19.9894 22.44V45H11.1094V22.44H19.9894Z" fill="black"/>
<path d="M42.8 22.28C45.3867 22.28 47.4 23.1467 48.84 24.88C50.3067 26.6133 51.04 28.96 51.04 31.92V45H42.2V33.04C42.2 31.9733 41.9067 31.1333 41.32 30.52C40.76 29.88 40 29.56 39.04 29.56C38.0533 29.56 37.28 29.88 36.72 30.52C36.16 31.1333 35.88 31.9733 35.88 33.04V45H27V22.44H35.88V25.88C36.5733 24.8133 37.4933 23.9467 38.64 23.28C39.8133 22.6133 41.2 22.28 42.8 22.28Z" fill="black"/>
</svg>
