<svg width="62" height="62" viewBox="0 0 62 62" fill="none" xmlns="http://www.w3.org/2000/svg">
<path fill-rule="evenodd" clip-rule="evenodd" d="M31.0256 0.5C13.8693 0.5 0 14.4791 0 31.7732C0 45.5972 8.88652 57.299 21.2145 61.4407C22.7558 61.752 23.3204 60.7678 23.3204 59.9398C23.3204 59.2148 23.2696 56.7297 23.2696 54.1404C14.639 56.0047 12.8417 50.4124 12.8417 50.4124C11.4547 46.788 9.39965 45.8565 9.39965 45.8565C6.57487 43.9407 9.60542 43.9407 9.60542 43.9407C12.7388 44.1479 14.383 47.1508 14.383 47.1508C17.1564 51.9139 21.6254 50.5681 23.4232 49.7395C23.6798 47.7202 24.5022 46.3222 25.3754 45.5458C18.4919 44.8208 11.2496 42.1285 11.2496 30.116C11.2496 26.6988 12.4816 23.9029 14.4338 21.7285C14.1258 20.9521 13.0469 17.7413 14.7425 13.444C14.7425 13.444 17.3621 12.6154 23.2689 16.6541C25.7978 15.9696 28.4058 15.6213 31.0256 15.6184C33.6453 15.6184 36.3158 15.9812 38.7817 16.6541C44.6892 12.6154 47.3088 13.444 47.3088 13.444C49.0044 17.7413 47.9248 20.9521 47.6168 21.7285C49.6205 23.9029 50.8017 26.6988 50.8017 30.116C50.8017 42.1285 43.5594 44.7687 36.6244 45.5458C37.7548 46.5294 38.7303 48.3931 38.7303 51.3446C38.7303 55.5383 38.6795 58.9041 38.6795 59.9392C38.6795 60.7678 39.2447 61.752 40.7854 61.4413C53.1133 57.2984 61.9999 45.5972 61.9999 31.7732C62.0507 14.4791 48.1306 0.5 31.0256 0.5Z" fill="white"/>
</svg>
