<svg width="56" height="39" viewBox="0 0 56 39" fill="none" xmlns="http://www.w3.org/2000/svg">
<g clip-path="url(#clip0_31_58)">
<path d="M54.2388 6.14408C53.5978 3.7812 51.7488 1.93092 49.3784 1.29894C46.1945 0.0736154 15.3558 -0.526761 6.40988 1.33405C4.03957 1.97305 2.18347 3.81631 1.54951 6.17919C0.112524 12.4638 0.00334155 26.0513 1.58473 32.4764C2.22573 34.8393 4.07479 36.6895 6.4451 37.3215C12.7495 38.768 42.7218 38.9717 49.4137 37.3215C51.784 36.6825 53.6401 34.8393 54.274 32.4764C55.8061 25.63 55.9153 12.8852 54.2388 6.14408Z" fill="#6987FF"/>
<path d="M36.9811 19.3104L22.6113 11.0947V27.5261L36.9811 19.3104Z" fill="#4557A0"/>
</g>
<defs>
<clipPath id="clip0_31_58">
<rect width="56" height="38.6207" fill="white"/>
</clipPath>
</defs>
</svg>
